<mxfile host="Electron" agent="Mozilla/5.0 (Windows NT 10.0; Win64; x64) AppleWebKit/537.36 (KHTML, like Gecko) draw.io/24.7.5 Chrome/126.0.6478.183 Electron/31.3.0 Safari/537.36" version="24.7.5">
  <diagram name="Page-1" id="c11_5Xn8lS83FPYNJXU0">
    <mxGraphModel dx="1573" dy="1099" grid="0" gridSize="10" guides="1" tooltips="1" connect="1" arrows="1" fold="1" page="0" pageScale="1" pageWidth="850" pageHeight="1100" math="0" shadow="0">
      <root>
        <mxCell id="0" />
        <mxCell id="1" parent="0" />
        <mxCell id="F9-_FqezO7LRW_tcTNdJ-3" style="edgeStyle=orthogonalEdgeStyle;rounded=0;orthogonalLoop=1;jettySize=auto;html=1;" parent="1" source="F9-_FqezO7LRW_tcTNdJ-2" target="F9-_FqezO7LRW_tcTNdJ-1" edge="1">
          <mxGeometry relative="1" as="geometry" />
        </mxCell>
        <mxCell id="F9-_FqezO7LRW_tcTNdJ-4" value="ABBREVIATION_FOR" style="edgeLabel;html=1;align=center;verticalAlign=middle;resizable=0;points=[];labelBackgroundColor=none;" parent="F9-_FqezO7LRW_tcTNdJ-3" vertex="1" connectable="0">
          <mxGeometry x="-0.3455" y="1" relative="1" as="geometry">
            <mxPoint x="-24" y="-11" as="offset" />
          </mxGeometry>
        </mxCell>
        <mxCell id="F9-_FqezO7LRW_tcTNdJ-7" style="edgeStyle=orthogonalEdgeStyle;rounded=0;orthogonalLoop=1;jettySize=auto;html=1;" parent="1" source="F9-_FqezO7LRW_tcTNdJ-1" target="F9-_FqezO7LRW_tcTNdJ-5" edge="1">
          <mxGeometry relative="1" as="geometry">
            <Array as="points">
              <mxPoint x="80" y="500" />
              <mxPoint x="80" y="500" />
            </Array>
          </mxGeometry>
        </mxCell>
        <mxCell id="F9-_FqezO7LRW_tcTNdJ-11" value="HAS_CONTRACT_CODE" style="edgeLabel;html=1;align=center;verticalAlign=middle;resizable=0;points=[];labelBackgroundColor=default;" parent="F9-_FqezO7LRW_tcTNdJ-7" vertex="1" connectable="0">
          <mxGeometry x="-0.5647" y="3" relative="1" as="geometry">
            <mxPoint x="-3" y="6" as="offset" />
          </mxGeometry>
        </mxCell>
        <mxCell id="F9-_FqezO7LRW_tcTNdJ-1" value="&lt;b&gt;SYSTEM NAME&lt;/b&gt;&lt;br&gt;&lt;div&gt;values {&lt;/div&gt;&lt;div&gt;description&lt;/div&gt;&lt;div&gt;}&lt;/div&gt;" style="ellipse;whiteSpace=wrap;html=1;aspect=fixed;" parent="1" vertex="1">
          <mxGeometry x="40" y="320" width="80" height="80" as="geometry" />
        </mxCell>
        <mxCell id="F9-_FqezO7LRW_tcTNdJ-2" value="&lt;b&gt;ACRONYM&lt;/b&gt;" style="ellipse;whiteSpace=wrap;html=1;aspect=fixed;" parent="1" vertex="1">
          <mxGeometry x="290" y="320" width="80" height="80" as="geometry" />
        </mxCell>
        <mxCell id="F9-_FqezO7LRW_tcTNdJ-5" value="&lt;b&gt;CONTRACT_CODE&lt;/b&gt;" style="ellipse;whiteSpace=wrap;html=1;aspect=fixed;" parent="1" vertex="1">
          <mxGeometry x="40" y="427" width="80" height="80" as="geometry" />
        </mxCell>
        <mxCell id="F9-_FqezO7LRW_tcTNdJ-20" value="&lt;b&gt;TEAM&lt;/b&gt;" style="ellipse;whiteSpace=wrap;html=1;aspect=fixed;" parent="1" vertex="1">
          <mxGeometry x="-80" y="70" width="80" height="80" as="geometry" />
        </mxCell>
        <mxCell id="F9-_FqezO7LRW_tcTNdJ-24" style="edgeStyle=orthogonalEdgeStyle;rounded=0;orthogonalLoop=1;jettySize=auto;html=1;entryX=0;entryY=0.5;entryDx=0;entryDy=0;" parent="1" source="F9-_FqezO7LRW_tcTNdJ-23" target="F9-_FqezO7LRW_tcTNdJ-20" edge="1">
          <mxGeometry relative="1" as="geometry" />
        </mxCell>
        <mxCell id="F9-_FqezO7LRW_tcTNdJ-25" value="MEMBER_OF&lt;div&gt;values {&lt;/div&gt;&lt;div&gt;involvement&lt;/div&gt;&lt;div&gt;}&lt;/div&gt;" style="edgeLabel;html=1;align=center;verticalAlign=middle;resizable=0;points=[];labelBackgroundColor=default;" parent="F9-_FqezO7LRW_tcTNdJ-24" vertex="1" connectable="0">
          <mxGeometry x="-0.206" y="-1" relative="1" as="geometry">
            <mxPoint x="6" y="-1" as="offset" />
          </mxGeometry>
        </mxCell>
        <mxCell id="F9-_FqezO7LRW_tcTNdJ-23" value="&lt;b&gt;TEAM_MEMBER&lt;/b&gt;&lt;div&gt;values {&lt;/div&gt;&lt;div&gt;email&lt;/div&gt;&lt;div&gt;mobile&lt;/div&gt;&lt;div&gt;}&lt;/div&gt;" style="ellipse;whiteSpace=wrap;html=1;aspect=fixed;" parent="1" vertex="1">
          <mxGeometry x="-270" y="70" width="80" height="80" as="geometry" />
        </mxCell>
        <mxCell id="F9-_FqezO7LRW_tcTNdJ-27" style="edgeStyle=orthogonalEdgeStyle;rounded=0;orthogonalLoop=1;jettySize=auto;html=1;entryX=0.5;entryY=0;entryDx=0;entryDy=0;" parent="1" source="F9-_FqezO7LRW_tcTNdJ-26" target="F9-_FqezO7LRW_tcTNdJ-23" edge="1">
          <mxGeometry relative="1" as="geometry" />
        </mxCell>
        <mxCell id="F9-_FqezO7LRW_tcTNdJ-28" value="EMPLOYED_AS&lt;div&gt;values {&lt;/div&gt;&lt;div&gt;start_date&lt;/div&gt;&lt;div&gt;end_date&lt;/div&gt;&lt;div&gt;}&lt;/div&gt;" style="edgeLabel;html=1;align=center;verticalAlign=middle;resizable=0;points=[];labelBackgroundColor=default;" parent="F9-_FqezO7LRW_tcTNdJ-27" vertex="1" connectable="0">
          <mxGeometry x="-0.5389" y="2" relative="1" as="geometry">
            <mxPoint x="-2" y="19" as="offset" />
          </mxGeometry>
        </mxCell>
        <mxCell id="F9-_FqezO7LRW_tcTNdJ-26" value="&lt;b&gt;COMPANY&lt;/b&gt;" style="ellipse;whiteSpace=wrap;html=1;aspect=fixed;" parent="1" vertex="1">
          <mxGeometry x="-270" y="-100" width="80" height="80" as="geometry" />
        </mxCell>
        <mxCell id="F9-_FqezO7LRW_tcTNdJ-41" style="edgeStyle=orthogonalEdgeStyle;rounded=0;orthogonalLoop=1;jettySize=auto;html=1;entryX=1;entryY=0.5;entryDx=0;entryDy=0;" parent="1" source="F9-_FqezO7LRW_tcTNdJ-29" target="F9-_FqezO7LRW_tcTNdJ-20" edge="1">
          <mxGeometry relative="1" as="geometry" />
        </mxCell>
        <mxCell id="F9-_FqezO7LRW_tcTNdJ-42" value="USED_BY" style="edgeLabel;html=1;align=center;verticalAlign=middle;resizable=0;points=[];labelBackgroundColor=default;" parent="F9-_FqezO7LRW_tcTNdJ-41" vertex="1" connectable="0">
          <mxGeometry x="-0.1667" y="-2" relative="1" as="geometry">
            <mxPoint x="-9" y="2" as="offset" />
          </mxGeometry>
        </mxCell>
        <mxCell id="F9-_FqezO7LRW_tcTNdJ-43" style="edgeStyle=orthogonalEdgeStyle;rounded=0;orthogonalLoop=1;jettySize=auto;html=1;exitX=0.5;exitY=0;exitDx=0;exitDy=0;" parent="1" source="F9-_FqezO7LRW_tcTNdJ-2" target="F9-_FqezO7LRW_tcTNdJ-29" edge="1">
          <mxGeometry relative="1" as="geometry">
            <Array as="points">
              <mxPoint x="340" y="110" />
            </Array>
          </mxGeometry>
        </mxCell>
        <mxCell id="F9-_FqezO7LRW_tcTNdJ-45" value="ABBREVIATION_FOR" style="edgeLabel;html=1;align=center;verticalAlign=middle;resizable=0;points=[];rotation=90;labelBackgroundColor=none;" parent="F9-_FqezO7LRW_tcTNdJ-43" vertex="1" connectable="0">
          <mxGeometry x="0.4035" y="-1" relative="1" as="geometry">
            <mxPoint x="9" y="138" as="offset" />
          </mxGeometry>
        </mxCell>
        <mxCell id="F9-_FqezO7LRW_tcTNdJ-29" value="&lt;b&gt;PRODUCT&lt;/b&gt;&lt;div&gt;&lt;span style=&quot;font-size: 11px; text-wrap: nowrap; background-color: rgb(255, 255, 255);&quot;&gt;values {&lt;/span&gt;&lt;/div&gt;&lt;div&gt;&lt;span style=&quot;font-size: 11px; text-wrap: nowrap; background-color: rgb(255, 255, 255);&quot;&gt;accessible_from&lt;/span&gt;&lt;/div&gt;&lt;div&gt;&lt;span style=&quot;font-size: 11px; text-wrap: nowrap; background-color: rgb(255, 255, 255);&quot;&gt;}&lt;/span&gt;&lt;/div&gt;" style="ellipse;whiteSpace=wrap;html=1;aspect=fixed;" parent="1" vertex="1">
          <mxGeometry x="170" y="70" width="80" height="80" as="geometry" />
        </mxCell>
        <mxCell id="F9-_FqezO7LRW_tcTNdJ-30" style="edgeStyle=orthogonalEdgeStyle;rounded=0;orthogonalLoop=1;jettySize=auto;html=1;entryX=0.958;entryY=0.298;entryDx=0;entryDy=0;entryPerimeter=0;exitX=0.5;exitY=1;exitDx=0;exitDy=0;" parent="1" source="F9-_FqezO7LRW_tcTNdJ-29" target="F9-_FqezO7LRW_tcTNdJ-1" edge="1">
          <mxGeometry relative="1" as="geometry">
            <mxPoint x="200" y="260.0000000000002" as="sourcePoint" />
            <Array as="points">
              <mxPoint x="210" y="320" />
              <mxPoint x="117" y="320" />
            </Array>
          </mxGeometry>
        </mxCell>
        <mxCell id="F9-_FqezO7LRW_tcTNdJ-31" value="USED_IN&lt;div&gt;values {&lt;/div&gt;&lt;div&gt;description&lt;/div&gt;&lt;div&gt;}&lt;/div&gt;" style="edgeLabel;html=1;align=center;verticalAlign=middle;resizable=0;points=[];labelBackgroundColor=default;" parent="F9-_FqezO7LRW_tcTNdJ-30" vertex="1" connectable="0">
          <mxGeometry x="-0.715" relative="1" as="geometry">
            <mxPoint y="79" as="offset" />
          </mxGeometry>
        </mxCell>
        <mxCell id="F9-_FqezO7LRW_tcTNdJ-32" value="&lt;b&gt;OTHER_NAME&lt;/b&gt;" style="ellipse;whiteSpace=wrap;html=1;aspect=fixed;" parent="1" vertex="1">
          <mxGeometry x="290" y="410" width="80" height="80" as="geometry" />
        </mxCell>
        <mxCell id="F9-_FqezO7LRW_tcTNdJ-33" style="edgeStyle=orthogonalEdgeStyle;rounded=0;orthogonalLoop=1;jettySize=auto;html=1;exitX=0.938;exitY=0.798;exitDx=0;exitDy=0;exitPerimeter=0;" parent="1" source="F9-_FqezO7LRW_tcTNdJ-1" target="F9-_FqezO7LRW_tcTNdJ-32" edge="1">
          <mxGeometry relative="1" as="geometry">
            <Array as="points">
              <mxPoint x="160" y="384" />
              <mxPoint x="160" y="450" />
            </Array>
          </mxGeometry>
        </mxCell>
        <mxCell id="F9-_FqezO7LRW_tcTNdJ-34" value="ALSO_KNOWN_AS" style="edgeLabel;html=1;align=center;verticalAlign=middle;resizable=0;points=[];labelBackgroundColor=none;" parent="F9-_FqezO7LRW_tcTNdJ-33" vertex="1" connectable="0">
          <mxGeometry x="0.4711" relative="1" as="geometry">
            <mxPoint x="4" y="-10" as="offset" />
          </mxGeometry>
        </mxCell>
        <mxCell id="F9-_FqezO7LRW_tcTNdJ-39" style="edgeStyle=orthogonalEdgeStyle;rounded=0;orthogonalLoop=1;jettySize=auto;html=1;entryX=0.842;entryY=0.886;entryDx=0;entryDy=0;entryPerimeter=0;exitX=0;exitY=0.5;exitDx=0;exitDy=0;" parent="1" source="F9-_FqezO7LRW_tcTNdJ-35" target="F9-_FqezO7LRW_tcTNdJ-20" edge="1">
          <mxGeometry relative="1" as="geometry">
            <Array as="points">
              <mxPoint x="10" y="190" />
              <mxPoint x="10" y="141" />
            </Array>
          </mxGeometry>
        </mxCell>
        <mxCell id="F9-_FqezO7LRW_tcTNdJ-40" value="CONDUCTED_BY" style="edgeLabel;html=1;align=center;verticalAlign=middle;resizable=0;points=[];labelBackgroundColor=default;" parent="F9-_FqezO7LRW_tcTNdJ-39" vertex="1" connectable="0">
          <mxGeometry x="-0.5501" y="2" relative="1" as="geometry">
            <mxPoint x="-17" y="-22" as="offset" />
          </mxGeometry>
        </mxCell>
        <mxCell id="F9-_FqezO7LRW_tcTNdJ-35" value="&lt;b&gt;ACTIVITY&lt;/b&gt;" style="ellipse;whiteSpace=wrap;html=1;aspect=fixed;" parent="1" vertex="1">
          <mxGeometry x="53" y="150" width="80" height="80" as="geometry" />
        </mxCell>
        <mxCell id="F9-_FqezO7LRW_tcTNdJ-36" style="edgeStyle=orthogonalEdgeStyle;rounded=0;orthogonalLoop=1;jettySize=auto;html=1;exitX=0.08;exitY=0.21;exitDx=0;exitDy=0;exitPerimeter=0;entryX=0;entryY=1;entryDx=0;entryDy=0;" parent="1" source="F9-_FqezO7LRW_tcTNdJ-1" target="F9-_FqezO7LRW_tcTNdJ-35" edge="1">
          <mxGeometry relative="1" as="geometry">
            <Array as="points">
              <mxPoint x="20" y="337" />
              <mxPoint x="20" y="218" />
              <mxPoint x="65" y="218" />
            </Array>
          </mxGeometry>
        </mxCell>
        <mxCell id="F9-_FqezO7LRW_tcTNdJ-37" value="REQUIRES&lt;div&gt;values {&lt;/div&gt;&lt;div&gt;frequency&lt;/div&gt;&lt;div&gt;reason&lt;/div&gt;&lt;div&gt;}&lt;/div&gt;" style="edgeLabel;html=1;align=center;verticalAlign=middle;resizable=0;points=[];labelBackgroundColor=default;" parent="F9-_FqezO7LRW_tcTNdJ-36" vertex="1" connectable="0">
          <mxGeometry x="0.4651" y="-1" relative="1" as="geometry">
            <mxPoint x="-1" y="36" as="offset" />
          </mxGeometry>
        </mxCell>
        <mxCell id="4Xo2CCdjrO3viW0_sgbb-1" style="edgeStyle=orthogonalEdgeStyle;rounded=0;orthogonalLoop=1;jettySize=auto;html=1;exitX=0;exitY=0;exitDx=0;exitDy=0;entryX=1;entryY=0.5;entryDx=0;entryDy=0;" parent="1" source="F9-_FqezO7LRW_tcTNdJ-2" target="F9-_FqezO7LRW_tcTNdJ-35" edge="1">
          <mxGeometry relative="1" as="geometry">
            <Array as="points">
              <mxPoint x="302" y="190" />
              <mxPoint x="220" y="190" />
              <mxPoint x="220" y="180" />
              <mxPoint x="200" y="180" />
              <mxPoint x="200" y="190" />
            </Array>
            <mxPoint x="340" y="330" as="sourcePoint" />
            <mxPoint x="260" y="120" as="targetPoint" />
          </mxGeometry>
        </mxCell>
        <mxCell id="4Xo2CCdjrO3viW0_sgbb-2" value="ABBREVIATION_FOR" style="edgeLabel;html=1;align=center;verticalAlign=middle;resizable=0;points=[];rotation=90;labelBackgroundColor=none;" parent="4Xo2CCdjrO3viW0_sgbb-1" vertex="1" connectable="0">
          <mxGeometry x="0.4035" y="-1" relative="1" as="geometry">
            <mxPoint x="89" y="69" as="offset" />
          </mxGeometry>
        </mxCell>
        <mxCell id="F9-_FqezO7LRW_tcTNdJ-17" value="" style="endArrow=classic;html=1;rounded=0;exitX=0;exitY=0;exitDx=0;exitDy=0;strokeColor=default;edgeStyle=orthogonalEdgeStyle;entryX=1;entryY=0;entryDx=0;entryDy=0;" parent="1" target="F9-_FqezO7LRW_tcTNdJ-1" edge="1">
          <mxGeometry width="50" height="50" relative="1" as="geometry">
            <mxPoint x="50.8557287525381" y="331.71572875253815" as="sourcePoint" />
            <mxPoint x="110" y="310" as="targetPoint" />
            <Array as="points">
              <mxPoint x="51" y="307" />
              <mxPoint x="108" y="307" />
            </Array>
          </mxGeometry>
        </mxCell>
        <mxCell id="F9-_FqezO7LRW_tcTNdJ-19" value="INTERFACES_WITH" style="edgeLabel;html=1;align=center;verticalAlign=middle;resizable=0;points=[];labelBackgroundColor=none;" parent="F9-_FqezO7LRW_tcTNdJ-17" vertex="1" connectable="0">
          <mxGeometry x="-0.0486" y="-1" relative="1" as="geometry">
            <mxPoint x="4" y="-11" as="offset" />
          </mxGeometry>
        </mxCell>
        <mxCell id="F9-_FqezO7LRW_tcTNdJ-21" style="edgeStyle=orthogonalEdgeStyle;rounded=0;orthogonalLoop=1;jettySize=auto;html=1;entryX=0.034;entryY=0.299;entryDx=0;entryDy=0;entryPerimeter=0;exitX=0.5;exitY=1;exitDx=0;exitDy=0;" parent="1" source="F9-_FqezO7LRW_tcTNdJ-20" target="F9-_FqezO7LRW_tcTNdJ-1" edge="1">
          <mxGeometry relative="1" as="geometry">
            <mxPoint x="-50" y="260.0000000000002" as="sourcePoint" />
            <Array as="points">
              <mxPoint x="-40" y="344" />
            </Array>
          </mxGeometry>
        </mxCell>
        <mxCell id="F9-_FqezO7LRW_tcTNdJ-22" value="INVOLVED_AS&lt;div&gt;values {&lt;/div&gt;&lt;div&gt;role&lt;/div&gt;&lt;div&gt;}&lt;/div&gt;" style="edgeLabel;html=1;align=center;verticalAlign=middle;resizable=0;points=[];labelBackgroundColor=default;" parent="F9-_FqezO7LRW_tcTNdJ-21" vertex="1" connectable="0">
          <mxGeometry x="-0.6292" y="-1" relative="1" as="geometry">
            <mxPoint x="1" y="109" as="offset" />
          </mxGeometry>
        </mxCell>
        <mxCell id="4Xo2CCdjrO3viW0_sgbb-3" style="edgeStyle=orthogonalEdgeStyle;rounded=0;orthogonalLoop=1;jettySize=auto;html=1;entryX=0.038;entryY=0.638;entryDx=0;entryDy=0;entryPerimeter=0;" parent="1" source="F9-_FqezO7LRW_tcTNdJ-23" target="F9-_FqezO7LRW_tcTNdJ-35" edge="1">
          <mxGeometry relative="1" as="geometry">
            <Array as="points">
              <mxPoint x="-230" y="201" />
              <mxPoint x="-50" y="201" />
              <mxPoint x="-50" y="190" />
              <mxPoint x="-30" y="190" />
              <mxPoint x="-30" y="201" />
            </Array>
          </mxGeometry>
        </mxCell>
        <mxCell id="4Xo2CCdjrO3viW0_sgbb-4" value="PARTICIPATES_IN&lt;div&gt;values {&lt;/div&gt;&lt;div&gt;task&lt;/div&gt;&lt;div&gt;}&lt;/div&gt;" style="edgeLabel;html=1;align=center;verticalAlign=middle;resizable=0;points=[];" parent="4Xo2CCdjrO3viW0_sgbb-3" vertex="1" connectable="0">
          <mxGeometry x="-0.2871" y="1" relative="1" as="geometry">
            <mxPoint x="13" as="offset" />
          </mxGeometry>
        </mxCell>
        <mxCell id="4Xo2CCdjrO3viW0_sgbb-5" style="edgeStyle=orthogonalEdgeStyle;rounded=0;orthogonalLoop=1;jettySize=auto;html=1;exitX=1;exitY=0.5;exitDx=0;exitDy=0;entryX=0.5;entryY=0;entryDx=0;entryDy=0;" parent="1" source="F9-_FqezO7LRW_tcTNdJ-2" target="F9-_FqezO7LRW_tcTNdJ-20" edge="1">
          <mxGeometry relative="1" as="geometry">
            <Array as="points">
              <mxPoint x="380" y="360" />
              <mxPoint x="380" y="40" />
              <mxPoint x="-40" y="40" />
            </Array>
            <mxPoint x="340" y="330" as="sourcePoint" />
            <mxPoint x="260" y="120" as="targetPoint" />
          </mxGeometry>
        </mxCell>
        <mxCell id="4Xo2CCdjrO3viW0_sgbb-7" value="&lt;span style=&quot;background-color: rgb(251, 251, 251);&quot;&gt;ABBREVIATION_FOR&lt;/span&gt;" style="edgeLabel;html=1;align=center;verticalAlign=middle;resizable=0;points=[];rotation=90;" parent="4Xo2CCdjrO3viW0_sgbb-5" vertex="1" connectable="0">
          <mxGeometry x="-0.6483" relative="1" as="geometry">
            <mxPoint x="10" y="17" as="offset" />
          </mxGeometry>
        </mxCell>
        <mxCell id="4Xo2CCdjrO3viW0_sgbb-8" style="edgeStyle=orthogonalEdgeStyle;rounded=0;orthogonalLoop=1;jettySize=auto;html=1;exitX=1;exitY=1;exitDx=0;exitDy=0;entryX=1;entryY=0.5;entryDx=0;entryDy=0;" parent="1" source="F9-_FqezO7LRW_tcTNdJ-2" target="F9-_FqezO7LRW_tcTNdJ-26" edge="1">
          <mxGeometry relative="1" as="geometry">
            <Array as="points">
              <mxPoint x="420" y="388" />
              <mxPoint x="420" y="-60" />
            </Array>
            <mxPoint x="380" y="370" as="sourcePoint" />
            <mxPoint x="-30" y="80" as="targetPoint" />
          </mxGeometry>
        </mxCell>
        <mxCell id="4Xo2CCdjrO3viW0_sgbb-10" value="&lt;span style=&quot;background-color: rgb(251, 251, 251);&quot;&gt;ABBREVIATION_FOR&lt;/span&gt;" style="edgeLabel;html=1;align=center;verticalAlign=middle;resizable=0;points=[];rotation=90;" parent="4Xo2CCdjrO3viW0_sgbb-8" vertex="1" connectable="0">
          <mxGeometry x="-0.6483" relative="1" as="geometry">
            <mxPoint x="10" y="-3" as="offset" />
          </mxGeometry>
        </mxCell>
        <mxCell id="4Xo2CCdjrO3viW0_sgbb-11" value="" style="endArrow=classic;html=1;rounded=0;exitX=0;exitY=0;exitDx=0;exitDy=0;strokeColor=default;edgeStyle=orthogonalEdgeStyle;entryX=1;entryY=0;entryDx=0;entryDy=0;" parent="1" edge="1">
          <mxGeometry width="50" height="50" relative="1" as="geometry">
            <mxPoint x="51.4257287525381" y="496.2842712474619" as="sourcePoint" />
            <mxPoint x="108.57" y="496" as="targetPoint" />
            <Array as="points">
              <mxPoint x="51" y="514" />
              <mxPoint x="109" y="514" />
            </Array>
          </mxGeometry>
        </mxCell>
        <mxCell id="4Xo2CCdjrO3viW0_sgbb-12" value="&lt;span style=&quot;background-color: rgb(255, 255, 255);&quot;&gt;HAS_PREDECESSOR&lt;/span&gt;" style="edgeLabel;html=1;align=center;verticalAlign=middle;resizable=0;points=[];labelBackgroundColor=none;" parent="4Xo2CCdjrO3viW0_sgbb-11" vertex="1" connectable="0">
          <mxGeometry x="-0.0486" y="-1" relative="1" as="geometry">
            <mxPoint x="1" y="11" as="offset" />
          </mxGeometry>
        </mxCell>
        <mxCell id="4Xo2CCdjrO3viW0_sgbb-13" value="Frequent questions from new-joiners:&lt;div&gt;&lt;ul&gt;&lt;li&gt;What does this &quot;abbreviation&quot; stand for?&lt;/li&gt;&lt;li&gt;Who do I contact with regards to activity XYZ?&lt;/li&gt;&lt;li&gt;Where do I find XYZ document?&lt;/li&gt;&lt;li&gt;What is the process/how is the activity supposed to be handled? (Previous examples/processes)&lt;/li&gt;&lt;li&gt;How does policy ABC impact activity XYZ?&lt;/li&gt;&lt;li&gt;Who is XYZ? How is he involved in activity ABC?&lt;/li&gt;&lt;/ul&gt;&lt;/div&gt;" style="text;html=1;align=left;verticalAlign=middle;whiteSpace=wrap;rounded=0;" parent="1" vertex="1">
          <mxGeometry x="-237" y="905" width="326" height="30" as="geometry" />
        </mxCell>
        <mxCell id="4Xo2CCdjrO3viW0_sgbb-14" style="edgeStyle=orthogonalEdgeStyle;rounded=0;orthogonalLoop=1;jettySize=auto;html=1;entryX=0;entryY=1;entryDx=0;entryDy=0;exitX=0;exitY=0;exitDx=0;exitDy=0;" parent="1" source="F9-_FqezO7LRW_tcTNdJ-23" target="F9-_FqezO7LRW_tcTNdJ-23" edge="1">
          <mxGeometry relative="1" as="geometry">
            <mxPoint x="-434" y="194" as="sourcePoint" />
            <mxPoint x="-148" y="245" as="targetPoint" />
            <Array as="points">
              <mxPoint x="-314" y="82" />
              <mxPoint x="-314" y="138" />
            </Array>
          </mxGeometry>
        </mxCell>
        <mxCell id="4Xo2CCdjrO3viW0_sgbb-15" value="REPORTS_TO" style="edgeLabel;html=1;align=center;verticalAlign=middle;resizable=0;points=[];" parent="4Xo2CCdjrO3viW0_sgbb-14" vertex="1" connectable="0">
          <mxGeometry x="-0.2871" y="1" relative="1" as="geometry">
            <mxPoint x="-5" y="24" as="offset" />
          </mxGeometry>
        </mxCell>
        <mxCell id="Dn-fupXRbOfsby8WBP30-1" value="&lt;h1 style=&quot;margin-top: 0px;&quot;&gt;Handling&lt;/h1&gt;&lt;p&gt;Example question: &quot;What does XYZ stands for?&quot; and there are 3 XYZs in the database, how should the program return the answer?&lt;/p&gt;&lt;p&gt;consectetur adipisicing elit, sed do eiusmod tempor incididunt ut labore et dolore magna aliqua.&lt;/p&gt;" style="text;html=1;whiteSpace=wrap;overflow=hidden;rounded=0;" vertex="1" parent="1">
          <mxGeometry x="-100" y="1035" width="257" height="120" as="geometry" />
        </mxCell>
      </root>
    </mxGraphModel>
  </diagram>
</mxfile>
